<svg width="68" height="12" viewBox="0 0 68 12" fill="none" xmlns="http://www.w3.org/2000/svg">
<g clip-path="url(#clip0_92_1644)">
<g clip-path="url(#clip1_92_1644)">
<path d="M6.46143 1.25487C6.40276 1.13754 6.31843 1.04404 6.20843 0.974372C6.09843 0.904705 5.97743 0.869872 5.84543 0.869872C5.71343 0.869872 5.5906 0.904705 5.47693 0.974372C5.36326 1.04404 5.2771 1.13754 5.21843 1.25487L3.84343 4.10387L0.752431 4.55487C0.627764 4.56954 0.514097 4.61904 0.411431 4.70337C0.308764 4.78771 0.239097 4.89221 0.202431 5.01687C0.165764 5.14154 0.162097 5.26804 0.191431 5.39637C0.220764 5.52471 0.283097 5.63287 0.378431 5.72087L2.61143 7.94287L2.08343 11.0669C2.06143 11.1989 2.0761 11.3235 2.12743 11.4409C2.17876 11.5582 2.25576 11.6572 2.35843 11.7379C2.4611 11.8185 2.57843 11.8625 2.71043 11.8699C2.84243 11.8772 2.9671 11.8515 3.08443 11.7929L5.84543 10.3189L8.60643 11.7929C8.72376 11.8515 8.8466 11.8772 8.97493 11.8699C9.10326 11.8625 9.22243 11.8204 9.33243 11.7434C9.44243 11.6664 9.52126 11.5674 9.56893 11.4464C9.6166 11.3254 9.62943 11.1989 9.60743 11.0669L9.06843 7.94287L11.3124 5.72087C11.4078 5.63287 11.4701 5.52471 11.4994 5.39637C11.5288 5.26804 11.5214 5.14154 11.4774 5.01687C11.4334 4.89221 11.3638 4.78771 11.2684 4.70337C11.1731 4.61904 11.0594 4.56954 10.9274 4.55487L7.84743 4.10387L6.46143 1.25487Z" fill="#D1D5DB"/>
<path d="M19.8364 1.25487C19.7778 1.13754 19.6934 1.04404 19.5834 0.974372C19.4734 0.904705 19.3524 0.869872 19.2204 0.869872C19.0884 0.869872 18.9656 0.904705 18.8519 0.974372C18.7383 1.04404 18.6521 1.13754 18.5934 1.25487L17.2184 4.10387L14.1274 4.55487C14.0028 4.56954 13.8891 4.61904 13.7864 4.70337C13.6838 4.78771 13.6141 4.89221 13.5774 5.01687C13.5408 5.14154 13.5371 5.26804 13.5664 5.39637C13.5958 5.52471 13.6581 5.63287 13.7534 5.72087L15.9864 7.94287L15.4584 11.0669C15.4364 11.1989 15.4511 11.3235 15.5024 11.4409C15.5538 11.5582 15.6308 11.6572 15.7334 11.7379C15.8361 11.8185 15.9534 11.8625 16.0854 11.8699C16.2174 11.8772 16.3421 11.8515 16.4594 11.7929L19.2204 10.3189L21.9814 11.7929C22.0988 11.8515 22.2216 11.8772 22.3499 11.8699C22.4783 11.8625 22.5974 11.8204 22.7074 11.7434C22.8174 11.6664 22.8963 11.5674 22.9439 11.4464C22.9916 11.3254 23.0044 11.1989 22.9824 11.0669L22.4434 7.94287L24.6874 5.72087C24.7828 5.63287 24.8451 5.52471 24.8744 5.39637C24.9038 5.26804 24.8964 5.14154 24.8524 5.01687C24.8084 4.89221 24.7388 4.78771 24.6434 4.70337C24.5481 4.61904 24.4344 4.56954 24.3024 4.55487L21.2224 4.10387L19.8364 1.25487Z" fill="#D1D5DB"/>
<path d="M33.2114 1.25487C33.1528 1.13754 33.0684 1.04404 32.9584 0.974372C32.8484 0.904705 32.7274 0.869872 32.5954 0.869872C32.4634 0.869872 32.3406 0.904705 32.2269 0.974372C32.1133 1.04404 32.0271 1.13754 31.9684 1.25487L30.5934 4.10387L27.5024 4.55487C27.3778 4.56954 27.2641 4.61904 27.1614 4.70337C27.0588 4.78771 26.9891 4.89221 26.9524 5.01687C26.9158 5.14154 26.9121 5.26804 26.9414 5.39637C26.9708 5.52471 27.0331 5.63287 27.1284 5.72087L29.3614 7.94287L28.8334 11.0669C28.8114 11.1989 28.8261 11.3235 28.8774 11.4409C28.9288 11.5582 29.0058 11.6572 29.1084 11.7379C29.2111 11.8185 29.3284 11.8625 29.4604 11.8699C29.5924 11.8772 29.7171 11.8515 29.8344 11.7929L32.5954 10.3189L35.3564 11.7929C35.4738 11.8515 35.5966 11.8772 35.7249 11.8699C35.8533 11.8625 35.9724 11.8204 36.0824 11.7434C36.1924 11.6664 36.2713 11.5674 36.3189 11.4464C36.3666 11.3254 36.3794 11.1989 36.3574 11.0669L35.8184 7.94287L38.0624 5.72087C38.1578 5.63287 38.2201 5.52471 38.2494 5.39637C38.2788 5.26804 38.2714 5.14154 38.2274 5.01687C38.1834 4.89221 38.1138 4.78771 38.0184 4.70337C37.9231 4.61904 37.8094 4.56954 37.6774 4.55487L34.5974 4.10387L33.2114 1.25487Z" fill="#D1D5DB"/>
<path d="M46.5864 1.25487C46.5278 1.13754 46.4434 1.04404 46.3334 0.974372C46.2234 0.904705 46.1024 0.869872 45.9704 0.869872C45.8384 0.869872 45.7156 0.904705 45.6019 0.974372C45.4883 1.04404 45.4021 1.13754 45.3434 1.25487L43.9684 4.10387L40.8774 4.55487C40.7528 4.56954 40.6391 4.61904 40.5364 4.70337C40.4338 4.78771 40.3641 4.89221 40.3274 5.01687C40.2908 5.14154 40.2871 5.26804 40.3164 5.39637C40.3458 5.52471 40.4081 5.63287 40.5034 5.72087L42.7364 7.94287L42.2084 11.0669C42.1864 11.1989 42.2011 11.3235 42.2524 11.4409C42.3038 11.5582 42.3808 11.6572 42.4834 11.7379C42.5861 11.8185 42.7034 11.8625 42.8354 11.8699C42.9674 11.8772 43.0921 11.8515 43.2094 11.7929L45.9704 10.3189L48.7314 11.7929C48.8488 11.8515 48.9716 11.8772 49.0999 11.8699C49.2283 11.8625 49.3474 11.8204 49.4574 11.7434C49.5674 11.6664 49.6463 11.5674 49.6939 11.4464C49.7416 11.3254 49.7544 11.1989 49.7324 11.0669L49.1934 7.94287L51.4374 5.72087C51.5328 5.63287 51.5951 5.52471 51.6244 5.39637C51.6538 5.26804 51.6464 5.14154 51.6024 5.01687C51.5584 4.89221 51.4888 4.78771 51.3934 4.70337C51.2981 4.61904 51.1844 4.56954 51.0524 4.55487L47.9724 4.10387L46.5864 1.25487Z" fill="#D1D5DB"/>
<path d="M59.9614 1.25487C59.9028 1.13754 59.8184 1.04404 59.7084 0.974372C59.5984 0.904705 59.4774 0.869872 59.3454 0.869872C59.2134 0.869872 59.0906 0.904705 58.9769 0.974372C58.8633 1.04404 58.7771 1.13754 58.7184 1.25487L57.3434 4.10387L54.2524 4.55487C54.1278 4.56954 54.0141 4.61904 53.9114 4.70337C53.8088 4.78771 53.7391 4.89221 53.7024 5.01687C53.6658 5.14154 53.6621 5.26804 53.6914 5.39637C53.7208 5.52471 53.7831 5.63287 53.8784 5.72087L56.1114 7.94287L55.5834 11.0669C55.5614 11.1989 55.5761 11.3235 55.6274 11.4409C55.6788 11.5582 55.7558 11.6572 55.8584 11.7379C55.9611 11.8185 56.0784 11.8625 56.2104 11.8699C56.3424 11.8772 56.4671 11.8515 56.5844 11.7929L59.3454 10.3189L62.1064 11.7929C62.2238 11.8515 62.3466 11.8772 62.4749 11.8699C62.6033 11.8625 62.7224 11.8204 62.8324 11.7434C62.9424 11.6664 63.0213 11.5674 63.0689 11.4464C63.1166 11.3254 63.1294 11.1989 63.1074 11.0669L62.5684 7.94287L64.8124 5.72087C64.9078 5.63287 64.9701 5.52471 64.9994 5.39637C65.0288 5.26804 65.0214 5.14154 64.9774 5.01687C64.9334 4.89221 64.8638 4.78771 64.7684 4.70337C64.6731 4.61904 64.5594 4.56954 64.4274 4.55487L61.3474 4.10387L59.9614 1.25487Z" fill="#D1D5DB"/>
</g>
<g clip-path="url(#clip2_92_1644)">
<g clip-path="url(#clip3_92_1644)">
<path d="M6.46143 1.25487C6.40276 1.13754 6.31843 1.04404 6.20843 0.974372C6.09843 0.904705 5.97743 0.869872 5.84543 0.869872C5.71343 0.869872 5.5906 0.904705 5.47693 0.974372C5.36326 1.04404 5.2771 1.13754 5.21843 1.25487L3.84343 4.10387L0.752431 4.55487C0.627764 4.56954 0.514097 4.61904 0.411431 4.70337C0.308764 4.78771 0.239097 4.89221 0.202431 5.01687C0.165764 5.14154 0.162097 5.26804 0.191431 5.39637C0.220764 5.52471 0.283097 5.63287 0.378431 5.72087L2.61143 7.94287L2.08343 11.0669C2.06143 11.1989 2.0761 11.3235 2.12743 11.4409C2.17876 11.5582 2.25576 11.6572 2.35843 11.7379C2.4611 11.8185 2.57843 11.8625 2.71043 11.8699C2.84243 11.8772 2.9671 11.8515 3.08443 11.7929L5.84543 10.3189L8.60643 11.7929C8.72376 11.8515 8.8466 11.8772 8.97493 11.8699C9.10326 11.8625 9.22243 11.8204 9.33243 11.7434C9.44243 11.6664 9.52126 11.5674 9.56893 11.4464C9.6166 11.3254 9.62943 11.1989 9.60743 11.0669L9.06843 7.94287L11.3124 5.72087C11.4078 5.63287 11.4701 5.52471 11.4994 5.39637C11.5288 5.26804 11.5214 5.14154 11.4774 5.01687C11.4334 4.89221 11.3638 4.78771 11.2684 4.70337C11.1731 4.61904 11.0594 4.56954 10.9274 4.55487L7.84743 4.10387L6.46143 1.25487Z" fill="#FACC15"/>
<path d="M19.8364 1.25487C19.7778 1.13754 19.6934 1.04404 19.5834 0.974372C19.4734 0.904705 19.3524 0.869872 19.2204 0.869872C19.0884 0.869872 18.9656 0.904705 18.8519 0.974372C18.7383 1.04404 18.6521 1.13754 18.5934 1.25487L17.2184 4.10387L14.1274 4.55487C14.0028 4.56954 13.8891 4.61904 13.7864 4.70337C13.6838 4.78771 13.6141 4.89221 13.5774 5.01687C13.5408 5.14154 13.5371 5.26804 13.5664 5.39637C13.5958 5.52471 13.6581 5.63287 13.7534 5.72087L15.9864 7.94287L15.4584 11.0669C15.4364 11.1989 15.4511 11.3235 15.5024 11.4409C15.5538 11.5582 15.6308 11.6572 15.7334 11.7379C15.8361 11.8185 15.9534 11.8625 16.0854 11.8699C16.2174 11.8772 16.3421 11.8515 16.4594 11.7929L19.2204 10.3189L21.9814 11.7929C22.0988 11.8515 22.2216 11.8772 22.3499 11.8699C22.4783 11.8625 22.5974 11.8204 22.7074 11.7434C22.8174 11.6664 22.8963 11.5674 22.9439 11.4464C22.9916 11.3254 23.0044 11.1989 22.9824 11.0669L22.4434 7.94287L24.6874 5.72087C24.7828 5.63287 24.8451 5.52471 24.8744 5.39637C24.9038 5.26804 24.8964 5.14154 24.8524 5.01687C24.8084 4.89221 24.7388 4.78771 24.6434 4.70337C24.5481 4.61904 24.4344 4.56954 24.3024 4.55487L21.2224 4.10387L19.8364 1.25487Z" fill="#FACC15"/>
<path d="M33.2114 1.25487C33.1528 1.13754 33.0684 1.04404 32.9584 0.974372C32.8484 0.904705 32.7274 0.869872 32.5954 0.869872C32.4634 0.869872 32.3406 0.904705 32.2269 0.974372C32.1133 1.04404 32.0271 1.13754 31.9684 1.25487L30.5934 4.10387L27.5024 4.55487C27.3778 4.56954 27.2641 4.61904 27.1614 4.70337C27.0588 4.78771 26.9891 4.89221 26.9524 5.01687C26.9158 5.14154 26.9121 5.26804 26.9414 5.39637C26.9708 5.52471 27.0331 5.63287 27.1284 5.72087L29.3614 7.94287L28.8334 11.0669C28.8114 11.1989 28.8261 11.3235 28.8774 11.4409C28.9288 11.5582 29.0058 11.6572 29.1084 11.7379C29.2111 11.8185 29.3284 11.8625 29.4604 11.8699C29.5924 11.8772 29.7171 11.8515 29.8344 11.7929L32.5954 10.3189L35.3564 11.7929C35.4738 11.8515 35.5966 11.8772 35.7249 11.8699C35.8533 11.8625 35.9724 11.8204 36.0824 11.7434C36.1924 11.6664 36.2713 11.5674 36.3189 11.4464C36.3666 11.3254 36.3794 11.1989 36.3574 11.0669L35.8184 7.94287L38.0624 5.72087C38.1578 5.63287 38.2201 5.52471 38.2494 5.39637C38.2788 5.26804 38.2714 5.14154 38.2274 5.01687C38.1834 4.89221 38.1138 4.78771 38.0184 4.70337C37.9231 4.61904 37.8094 4.56954 37.6774 4.55487L34.5974 4.10387L33.2114 1.25487Z" fill="#FACC15"/>
<path d="M46.5864 1.25487C46.5278 1.13754 46.4434 1.04404 46.3334 0.974372C46.2234 0.904705 46.1024 0.869872 45.9704 0.869872C45.8384 0.869872 45.7156 0.904705 45.6019 0.974372C45.4883 1.04404 45.4021 1.13754 45.3434 1.25487L43.9684 4.10387L40.8774 4.55487C40.7528 4.56954 40.6391 4.61904 40.5364 4.70337C40.4338 4.78771 40.3641 4.89221 40.3274 5.01687C40.2908 5.14154 40.2871 5.26804 40.3164 5.39637C40.3458 5.52471 40.4081 5.63287 40.5034 5.72087L42.7364 7.94287L42.2084 11.0669C42.1864 11.1989 42.2011 11.3235 42.2524 11.4409C42.3038 11.5582 42.3808 11.6572 42.4834 11.7379C42.5861 11.8185 42.7034 11.8625 42.8354 11.8699C42.9674 11.8772 43.0921 11.8515 43.2094 11.7929L45.9704 10.3189L48.7314 11.7929C48.8488 11.8515 48.9716 11.8772 49.0999 11.8699C49.2283 11.8625 49.3474 11.8204 49.4574 11.7434C49.5674 11.6664 49.6463 11.5674 49.6939 11.4464C49.7416 11.3254 49.7544 11.1989 49.7324 11.0669L49.1934 7.94287L51.4374 5.72087C51.5328 5.63287 51.5951 5.52471 51.6244 5.39637C51.6538 5.26804 51.6464 5.14154 51.6024 5.01687C51.5584 4.89221 51.4888 4.78771 51.3934 4.70337C51.2981 4.61904 51.1844 4.56954 51.0524 4.55487L47.9724 4.10387L46.5864 1.25487Z" fill="#FACC15"/>
<path d="M59.9614 1.25487C59.9028 1.13754 59.8184 1.04404 59.7084 0.974372C59.5984 0.904705 59.4774 0.869872 59.3454 0.869872C59.2134 0.869872 59.0906 0.904705 58.9769 0.974372C58.8633 1.04404 58.7771 1.13754 58.7184 1.25487L57.3434 4.10387L54.2524 4.55487C54.1278 4.56954 54.0141 4.61904 53.9114 4.70337C53.8088 4.78771 53.7391 4.89221 53.7024 5.01687C53.6658 5.14154 53.6621 5.26804 53.6914 5.39637C53.7208 5.52471 53.7831 5.63287 53.8784 5.72087L56.1114 7.94287L55.5834 11.0669C55.5614 11.1989 55.5761 11.3235 55.6274 11.4409C55.6788 11.5582 55.7558 11.6572 55.8584 11.7379C55.9611 11.8185 56.0784 11.8625 56.2104 11.8699C56.3424 11.8772 56.4671 11.8515 56.5844 11.7929L59.3454 10.3189L62.1064 11.7929C62.2238 11.8515 62.3466 11.8772 62.4749 11.8699C62.6033 11.8625 62.7224 11.8204 62.8324 11.7434C62.9424 11.6664 63.0213 11.5674 63.0689 11.4464C63.1166 11.3254 63.1294 11.1989 63.1074 11.0669L62.5684 7.94287L64.8124 5.72087C64.9078 5.63287 64.9701 5.52471 64.9994 5.39637C65.0288 5.26804 65.0214 5.14154 64.9774 5.01687C64.9334 4.89221 64.8638 4.78771 64.7684 4.70337C64.6731 4.61904 64.5594 4.56954 64.4274 4.55487L61.3474 4.10387L59.9614 1.25487Z" fill="#FACC15"/>
</g>
</g>
</g>
<defs>
<clipPath id="clip0_92_1644">
<rect width="66.88" height="11" fill="white" transform="translate(0.169922 0.870117)"/>
</clipPath>
<clipPath id="clip1_92_1644">
<rect width="66.88" height="11" fill="white" transform="matrix(1 0 0 -1 0.169922 11.8701)"/>
</clipPath>
<clipPath id="clip2_92_1644">
<rect width="53.5" height="11" fill="white" transform="translate(0.169922 0.870117)"/>
</clipPath>
<clipPath id="clip3_92_1644">
<rect width="66.88" height="11" fill="white" transform="matrix(1 0 0 -1 0.169922 11.8701)"/>
</clipPath>
</defs>
</svg>
