<svg width="14" height="15" viewBox="0 0 14 15" fill="none" xmlns="http://www.w3.org/2000/svg">
<g clip-path="url(#clip0_92_1797)">
<path d="M7.15411 1.3622C6.73411 1.3622 6.34445 1.46719 5.98511 1.67719C5.62578 1.88719 5.34111 2.17186 5.13111 2.53119C4.92111 2.89053 4.81611 3.2802 4.81611 3.7002H3.62611C3.62611 3.06553 3.78245 2.47986 4.09511 1.9432C4.40778 1.40653 4.83245 0.981861 5.36911 0.669195C5.90578 0.356528 6.49145 0.200195 7.12611 0.200195C7.76078 0.200195 8.34645 0.356528 8.88311 0.669195C9.41978 0.981861 9.84445 1.40653 10.1571 1.9432C10.4698 2.47986 10.6261 3.06553 10.6261 3.7002H12.9221C13.2581 3.7002 13.5428 3.81919 13.7761 4.05719C14.0094 4.29519 14.1261 4.58686 14.1261 4.93219C14.1261 5.00686 14.1214 5.07686 14.1121 5.14219L12.8101 12.6742C12.7354 13.1129 12.5301 13.4769 12.1941 13.7662C11.8581 14.0555 11.4708 14.2002 11.0321 14.2002H3.22011C2.78145 14.2002 2.39411 14.0555 2.05811 13.7662C1.72211 13.4769 1.51678 13.1129 1.44211 12.6742L0.140113 5.15619C0.0841126 4.8202 0.151779 4.51219 0.343113 4.23219C0.534446 3.9522 0.793446 3.77953 1.12011 3.7142C1.18545 3.70486 1.25545 3.7002 1.33011 3.7002H9.49211C9.49211 3.2802 9.38711 2.89053 9.17711 2.53119C8.96711 2.17186 8.68245 1.88719 8.32311 1.67719C7.96378 1.46719 7.57411 1.3622 7.15411 1.3622ZM12.9221 4.8622H1.33011C1.32078 4.8622 1.30678 4.88086 1.28811 4.91819V4.94619L2.59011 12.4782C2.61811 12.6275 2.68345 12.7535 2.78611 12.8562C2.88878 12.9589 3.01011 13.0149 3.15011 13.0242L3.22011 13.0382H11.0321C11.1721 13.0382 11.3004 12.9939 11.4171 12.9052C11.5338 12.8165 11.6108 12.6975 11.6481 12.5482L12.9641 4.93219C12.9641 4.89486 12.9548 4.87619 12.9361 4.87619L12.9221 4.8622Z" fill="white"/>
</g>
<defs>
<clipPath id="clip0_92_1797">
<rect width="14" height="14" fill="white" transform="matrix(1 0 0 -1 0 14.2002)"/>
</clipPath>
</defs>
</svg>
