<svg width="10" height="10" viewBox="0 0 10 10" fill="none" xmlns="http://www.w3.org/2000/svg">
<path d="M7.37926 5.08869C7.37562 4.46799 7.65685 4.00019 8.22476 3.65526C7.90713 3.2002 7.42659 2.94992 6.79315 2.90168C6.19338 2.85436 5.53719 3.25117 5.29692 3.25117C5.043 3.25117 4.46234 2.91807 4.00546 2.91807C3.06258 2.93263 2.06055 3.66982 2.06055 5.16969C2.06055 5.61292 2.14155 6.07071 2.30355 6.54215C2.52016 7.16285 3.30103 8.68365 4.11559 8.65908C4.54152 8.64906 4.84277 8.35692 5.39703 8.35692C5.93491 8.35692 6.2134 8.65908 6.68848 8.65908C7.51032 8.64724 8.21657 7.26478 8.42226 6.64226C7.32011 6.12258 7.37926 5.12055 7.37926 5.08869ZM6.42273 2.31284C6.88416 1.76495 6.84229 1.26621 6.82864 1.08691C6.42091 1.11058 5.94947 1.3645 5.68099 1.67667C5.3852 2.01159 5.21137 2.42569 5.24868 2.89258C5.68918 2.92626 6.09145 2.69964 6.42273 2.31284Z" fill="#313131"/>
</svg>
