<svg width="16" height="16" viewBox="0 0 16 16" fill="none" xmlns="http://www.w3.org/2000/svg">
<path fill-rule="evenodd" clip-rule="evenodd" d="M5.50097 4.01065V3.33398C5.50097 2.67094 5.76436 2.03506 6.2332 1.56622C6.70204 1.09738 7.33793 0.833984 8.00097 0.833984C8.66401 0.833984 9.29989 1.09738 9.76874 1.56622C10.2376 2.03506 10.501 2.67094 10.501 3.33398V4.01065C11.359 4.03665 11.8843 4.12865 12.285 4.46132C12.8403 4.92265 12.987 5.70265 13.2796 7.26332L13.7796 9.92998C14.191 12.1247 14.3963 13.222 13.797 13.9447C13.197 14.6673 12.0803 14.6673 9.84764 14.6673H6.1543C3.92097 14.6673 2.80497 14.6673 2.20497 13.9447C1.60497 13.222 1.81163 12.1247 2.2223 9.92998L2.7223 7.26332C3.01563 5.70332 3.16163 4.92265 3.71697 4.46132C4.11763 4.12865 4.64297 4.03665 5.50097 4.01065ZM6.50097 3.33398C6.50097 2.93616 6.659 2.55463 6.94031 2.27332C7.22161 1.99202 7.60314 1.83398 8.00097 1.83398C8.39879 1.83398 8.78032 1.99202 9.06163 2.27332C9.34293 2.55463 9.50097 2.93616 9.50097 3.33398V4.00065H6.50097V3.33398Z" fill="black"/>
</svg>
