<svg width="16" height="16" viewBox="0 0 16 16" fill="none" xmlns="http://www.w3.org/2000/svg">
<path d="M12.9976 1.50191V1.0064C12.9976 0.867876 12.9496 0.747996 12.8538 0.646764C12.7579 0.545531 12.6408 0.494916 12.5024 0.494916C12.3639 0.494916 12.2468 0.545531 12.1509 0.646764C12.0551 0.747996 12.0072 0.867876 12.0072 1.0064V1.50191H8.50885V1.0064C8.50885 0.867876 8.45827 0.747996 8.3571 0.646764C8.25593 0.545531 8.13879 0.494916 8.00567 0.494916C7.87255 0.494916 7.75541 0.545531 7.65424 0.646764C7.55307 0.747996 7.50249 0.867876 7.50249 1.0064V1.50191H4.00417V1.0064C4.00417 0.867876 3.95625 0.747996 3.86041 0.646764C3.76456 0.545531 3.64742 0.494916 3.50898 0.494916C3.37054 0.494916 3.25339 0.545531 3.15755 0.646764C3.06171 0.747996 3.01378 0.867876 3.01378 1.0064V1.50191C2.55586 1.50191 2.13521 1.6138 1.75183 1.83757C1.36846 2.06135 1.06495 2.36505 0.841314 2.74866C0.617678 3.13228 0.505859 3.54786 0.505859 3.99541V12.9944C0.505859 13.4526 0.617678 13.8735 0.841314 14.2572C1.06495 14.6408 1.36846 14.9445 1.75183 15.1682C2.13521 15.392 2.55586 15.5039 3.01378 15.5039H12.9976C13.4555 15.5039 13.8761 15.392 14.2595 15.1682C14.6429 14.9445 14.9464 14.6408 15.17 14.2572C15.3937 13.8735 15.5055 13.4526 15.5055 12.9944V3.99541C15.5055 3.54786 15.3937 3.13228 15.17 2.74866C14.9464 2.36505 14.6429 2.06135 14.2595 1.83757C13.8761 1.6138 13.4555 1.50191 12.9976 1.50191ZM3.01378 2.49292V3.00441C3.01378 3.14293 3.06171 3.26015 3.15755 3.35605C3.25339 3.45196 3.37054 3.49991 3.50898 3.49991C3.64742 3.49991 3.76456 3.45196 3.86041 3.35605C3.95625 3.26015 4.00417 3.14293 4.00417 3.00441V2.49292H7.50249V3.00441C7.50249 3.14293 7.55307 3.26015 7.65424 3.35605C7.75541 3.45196 7.87255 3.49991 8.00567 3.49991C8.13879 3.49991 8.25593 3.45196 8.3571 3.35605C8.45827 3.26015 8.50885 3.14293 8.50885 3.00441V2.49292H12.0072V3.00441C12.0072 3.14293 12.0551 3.26015 12.1509 3.35605C12.2468 3.45196 12.3639 3.49991 12.5024 3.49991C12.6408 3.49991 12.7579 3.45196 12.8538 3.35605C12.9496 3.26015 12.9976 3.14293 12.9976 3.00441V2.49292C13.4129 2.49292 13.767 2.63944 14.0598 2.93248C14.3527 3.22552 14.4991 3.57983 14.4991 3.99541V4.5069H1.51222V3.99541C1.51222 3.57983 1.65865 3.22552 1.95151 2.93248C2.24437 2.63944 2.59846 2.49292 3.01378 2.49292ZM12.9976 14.4969H3.01378C2.59846 14.4969 2.24437 14.3504 1.95151 14.0574C1.65865 13.7643 1.51222 13.41 1.51222 12.9944V5.49791H14.4991V12.9944C14.4991 13.41 14.3527 13.7643 14.0598 14.0574C13.767 14.3504 13.4129 14.4969 12.9976 14.4969Z" fill="#FF2220"/>
</svg>
