<svg width="34" height="38" viewBox="0 0 34 38" fill="none" xmlns="http://www.w3.org/2000/svg">
<g clip-path="url(#clip0_735_1571)">
<path fill-rule="evenodd" clip-rule="evenodd" d="M0.577947 4.54281H7.58131L7.57204 4.4222V1.27718C7.57204 0.575195 8.30143 0 9.19771 0C10.0909 0 10.8234 0.578288 10.8234 1.27718V4.4222L10.8141 4.54281H22.7408L22.7316 4.4222V1.27718C22.7316 0.575195 23.461 0 24.3542 0C25.2473 0 25.9798 0.578288 25.9798 1.27718V4.4222L25.9705 4.54281H33.4221C33.7404 4.54281 34 4.80257 34 5.12109V11.139C34 11.4575 33.7404 11.7173 33.4221 11.7173H0.577947C0.259613 11.7142 0 11.4544 0 11.1359V5.118C0 4.79948 0.259613 4.54281 0.577947 4.54281ZM0.14526 13.047H33.8578C33.9382 13.047 34 13.112 34 13.1893V37.8547C34 37.932 33.9351 37.9969 33.8578 37.9969H0.14526C0.0679938 37.9969 0 37.932 0 37.8547V13.1924C0 13.112 0.0649032 13.047 0.14526 13.047ZM30.0625 16.3158H25.8284C25.5719 16.3158 25.3648 16.5106 25.3648 16.7487V20.6885C25.3648 20.9266 25.5719 21.1214 25.8284 21.1214H30.0656C30.3222 21.1214 30.5323 20.9266 30.5323 20.6885V16.7487C30.5292 16.5106 30.3191 16.3158 30.0625 16.3158ZM3.78293 23.1717H8.01709C8.27361 23.1717 8.48377 23.3665 8.48377 23.6047V27.5444C8.48377 27.7826 8.27361 27.9774 8.01709 27.9774H3.92819C3.67167 27.9774 3.46459 27.7826 3.46459 27.5444V23.4624C3.46459 23.2243 3.67476 23.0295 3.92819 23.0295L3.78293 23.1717ZM3.78293 30.0308H8.01709C8.27361 30.0308 8.48377 30.2256 8.48377 30.4637V34.4035C8.48377 34.6416 8.27361 34.8364 8.01709 34.8364H3.9251C3.66858 34.8364 3.4615 34.6416 3.4615 34.4035V30.4637C3.4615 30.2256 3.67167 30.0308 3.9251 30.0308H3.78293ZM3.78293 16.3158H8.01709C8.27361 16.3158 8.48377 16.5106 8.48377 16.7487V20.6885C8.48377 20.9266 8.27361 21.1214 8.01709 21.1214H3.9251C3.66858 21.1214 3.4615 20.9266 3.4615 20.6885V16.7487C3.4615 16.5106 3.67167 16.3158 3.9251 16.3158H3.78293ZM11.1324 16.3158H15.3697C15.6262 16.3158 15.8333 16.5106 15.8333 16.7487V20.6885C15.8333 20.9266 15.6231 21.1214 15.3697 21.1214H11.1324C10.8759 21.1214 10.6658 20.9266 10.6658 20.6885V16.7487C10.6658 16.5106 10.8759 16.3158 11.1324 16.3158ZM11.1324 23.1717H15.3697C15.6262 23.1717 15.8333 23.3665 15.8333 23.6047V27.5444C15.8333 27.7826 15.6231 27.9774 15.3697 27.9774H11.1324C10.8759 27.9774 10.6658 27.7826 10.6658 27.5444V23.4624C10.6658 23.2243 10.8759 23.0295 11.1324 23.0295V23.1717ZM11.1324 30.0308H15.3697C15.6262 30.0308 15.8333 30.2256 15.8333 30.4637V34.4035C15.8333 34.6416 15.6231 34.8364 15.3697 34.8364H11.1324C10.8759 34.8364 10.6658 34.6416 10.6658 34.4035V30.4637C10.6658 30.2256 10.8759 30.0308 11.1324 30.0308ZM18.4789 16.3158H22.7161C22.9726 16.3158 23.1828 16.5106 23.1828 16.7487V20.6885C23.1828 20.9266 22.9726 21.1214 22.7161 21.1214H18.4789C18.2223 21.1214 18.0122 20.9266 18.0122 20.6885V16.7487C18.0153 16.5106 18.2223 16.3158 18.4789 16.3158ZM18.4789 23.1717H22.7161C22.9726 23.1717 23.1828 23.3665 23.1828 23.6047V27.5444C23.1828 27.7826 22.9726 27.9774 22.7161 27.9774H18.4789C18.2223 27.9774 18.0122 27.7826 18.0122 27.5444V23.4624C18.0122 23.2243 18.2223 23.0295 18.4789 23.0295V23.1717ZM30.0625 23.1717H25.8284C25.5719 23.1717 25.3648 23.3665 25.3648 23.6047V27.5444C25.3648 27.7826 25.5719 27.9774 25.8284 27.9774H30.0656C30.3222 27.9774 30.5323 27.7826 30.5323 27.5444V23.4593C30.5323 23.2212 30.3222 23.0264 30.0656 23.0264L30.0625 23.1717ZM30.0625 30.0308H25.8284C25.5719 30.0308 25.3648 30.2256 25.3648 30.4637V34.4035C25.3648 34.6416 25.5719 34.8364 25.8284 34.8364H30.0656C30.3222 34.8364 30.5323 34.6416 30.5323 34.4035V30.3184C30.5323 30.0802 30.3222 29.8854 30.0656 29.8854L30.0625 30.0308ZM18.4789 30.0308H22.7161C22.9726 30.0308 23.1828 30.2256 23.1828 30.4637V34.4035C23.1828 34.6416 22.9726 34.8364 22.7161 34.8364H18.4789C18.2223 34.8364 18.0122 34.6416 18.0122 34.4035V30.4637C18.0153 30.2256 18.2223 30.0308 18.4789 30.0308ZM2.16653 14.7541H32.1209C32.2816 14.7541 32.4114 14.8901 32.4114 15.0448V36.0023C32.4114 36.1569 32.2754 36.293 32.1209 36.293H1.8791C1.72457 36.293 1.58858 36.1631 1.58858 36.0023V15.3324C1.58858 15.0138 1.8482 14.7541 2.16653 14.7541ZM24.3542 9.0918C25.2473 9.0918 25.9798 8.51351 25.9798 7.81462V4.67269L25.9705 4.5459H22.7408L22.7316 4.67269V7.81462C22.7316 8.5166 23.461 9.0918 24.3542 9.0918ZM9.19771 9.0918C10.0909 9.0918 10.8234 8.51351 10.8234 7.81462V4.67269L10.8141 4.5459H7.58131L7.57204 4.67269V7.81462C7.57204 8.5166 8.30143 9.0918 9.19771 9.0918Z" fill="white"/>
</g>
<defs>
<clipPath id="clip0_735_1571">
<rect width="34" height="38" fill="white"/>
</clipPath>
</defs>
</svg>
