<svg width="24" height="12" viewBox="0 0 24 12" fill="none" xmlns="http://www.w3.org/2000/svg">
<path d="M1.59996 6.30433L3.99849 6.30433M3.99849 6.30433L3.99849 9.90213L8.19592 9.90213L8.19592 6.30433M3.99849 6.30433L8.19592 6.30433M13.1249 6.30433C13.1208 6.91944 13.2384 7.52929 13.4709 8.09876C13.7034 8.66823 14.0463 9.18608 14.4798 9.6225C14.9133 10.0589 15.4289 10.4053 15.9968 10.6416C16.5647 10.878 17.1737 10.9996 17.7888 10.9996C18.404 10.9996 19.013 10.878 19.5809 10.6416C20.1488 10.4053 20.6643 10.0589 21.0978 9.6225C21.5313 9.18608 21.8742 8.66824 22.1068 8.09876C22.3393 7.52929 22.4569 6.91944 22.4528 6.30434C22.4315 5.08158 21.9309 3.91608 21.0586 3.05888C20.1864 2.20167 19.0124 1.72134 17.7894 1.72134C16.5665 1.72134 15.3925 2.20167 14.5202 3.05888C13.648 3.91608 13.1461 5.08158 13.1249 6.30433ZM13.1249 6.30433L8.19592 6.30433" stroke="#5F6C72" stroke-width="1.5" stroke-linecap="round" stroke-linejoin="round"/>
</svg>
