<svg width="33" height="28" viewBox="0 0 33 28" fill="none" xmlns="http://www.w3.org/2000/svg">
<path d="M10.7227 1.98047H31.556V20.0361H10.7227V1.98047Z" stroke="#FD4B6B" stroke-width="2" stroke-linecap="round" stroke-linejoin="round"/>
<path d="M10.7222 8.9248H5.16666L1 13.0914V20.0359H10.7222V8.9248Z" stroke="#FD4B6B" stroke-width="2" stroke-linecap="round" stroke-linejoin="round"/>
<path d="M25.3062 26.9806C23.3886 26.9806 21.834 25.426 21.834 23.5084C21.834 21.5907 23.3886 20.0361 25.3062 20.0361C27.2239 20.0361 28.7785 21.5907 28.7785 23.5084C28.7785 25.426 27.2239 26.9806 25.3062 26.9806Z" stroke="#FD4B6B" stroke-width="2" stroke-linecap="round" stroke-linejoin="round"/>
<path d="M7.24957 26.9806C5.33191 26.9806 3.77734 25.426 3.77734 23.5084C3.77734 21.5907 5.33191 20.0361 7.24957 20.0361C9.16722 20.0361 10.7218 21.5907 10.7218 23.5084C10.7218 25.426 9.16722 26.9806 7.24957 26.9806Z" stroke="#FD4B6B" stroke-width="2" stroke-linecap="round" stroke-linejoin="round"/>
</svg>
