<svg width="45" height="23" viewBox="0 0 45 23" fill="none" xmlns="http://www.w3.org/2000/svg">
<path fill-rule="evenodd" clip-rule="evenodd" d="M36.3098 5.79617L30.9009 5.76225V2.01999C30.9009 1.46223 30.6775 0.957234 30.3259 0.595445C29.9707 0.229887 29.4836 0 28.938 0H8.59131C8.04932 0 7.55859 0.229887 7.20703 0.591676C6.85181 0.957234 6.63208 1.45846 6.63208 2.01622C6.63208 2.32525 6.86646 2.56267 7.16309 2.56267C7.45972 2.56267 7.69409 2.32148 7.69409 2.01622C7.69409 1.76372 7.79297 1.5263 7.96143 1.36425C8.12622 1.19466 8.34961 1.08914 8.59497 1.08914H28.9417C29.187 1.08914 29.4067 1.19089 29.5752 1.36425C29.74 1.53384 29.8425 1.76372 29.8425 2.01622V19.1635H25.6421C25.3418 19.1635 25.1111 19.4047 25.1111 19.71C25.1111 20.0077 25.3455 20.2564 25.6421 20.2564H30.3699C30.6702 20.2564 30.9009 20.0152 30.9009 19.71V19.0806H34.1162C34.3616 13.3749 42.3084 12.591 43.1177 19.0806H44.8682C45.0989 17.8144 45.0147 16.337 44.6924 14.709C44.3189 12.8096 44.4287 13.1789 42.7039 12.4968L39.1882 10.8763L36.3098 5.79617ZM6.73828 11.8561C7.03491 11.8561 7.27295 12.1049 7.27295 12.4064C7.27295 12.7116 7.03125 12.9566 6.73828 12.9566H2.93701C2.64038 12.9566 2.40234 12.7078 2.40234 12.4064C2.40234 12.1011 2.64404 11.8561 2.93701 11.8561H6.73828ZM6.73828 8.24955C7.03491 8.24955 7.27295 8.49828 7.27295 8.79977C7.27295 9.10503 7.03125 9.34999 6.73828 9.34999H1.92993C1.6333 9.34999 1.39526 9.10126 1.39526 8.79977C1.39526 8.49451 1.63696 8.24955 1.92993 8.24955H6.73828ZM6.73828 4.64296C7.03491 4.64296 7.27295 4.89169 7.27295 5.19318C7.27295 5.49844 7.03125 5.7434 6.73828 5.7434H0.534668C0.241699 5.74717 0 5.49844 0 5.19695C0 4.89169 0.241699 4.64673 0.534668 4.64673H6.73828V4.64296ZM23.8293 4.52237H27.3376V6.12027H25.9351V7.65034H27.2461V9.1691H25.9351V10.9291H27.4805V12.527H23.8293V4.52237ZM19.3982 4.52237H22.9065V6.12027H21.5039V7.65034H22.8149V9.1691H21.5039V10.9291H23.0493V12.527H19.3982V4.52237ZM13.7109 4.52237H15.1978C16.1902 4.52237 16.8604 4.56005 17.2119 4.63543C17.5635 4.7108 17.8491 4.90677 18.0725 5.2158C18.2959 5.52482 18.4058 6.02228 18.4058 6.70441C18.4058 7.32623 18.3289 7.74455 18.1714 7.95936C18.0176 8.17418 17.7063 8.30231 17.2485 8.34377C17.666 8.44552 17.9443 8.58496 18.0872 8.75455C18.23 8.92414 18.3179 9.08242 18.3545 9.22563C18.3911 9.36883 18.4058 9.76454 18.4058 10.409V12.5232H16.4539V9.85876C16.4539 9.42913 16.4209 9.16533 16.3513 9.06357C16.2854 8.96182 16.106 8.90906 15.8203 8.90906V12.5232H13.7146V4.52237H13.7109ZM15.8167 5.89038V7.67295C16.051 7.67295 16.2158 7.6428 16.311 7.57496C16.4063 7.5109 16.4539 7.29985 16.4539 6.94937V6.50844C16.4539 6.25217 16.4063 6.08635 16.3184 6.00721C16.2231 5.92807 16.0583 5.89038 15.8167 5.89038ZM9.45923 4.52237H13.0188V6.12027H11.5649V7.65034H12.854V9.1691H11.5649V12.5307H9.45923V4.52237ZM14.6887 19.1673C14.978 19.1673 15.2197 19.4085 15.2197 19.7137C15.2197 20.0115 14.9854 20.2602 14.6887 20.2602H8.6023C8.0603 20.2602 7.56958 20.019 7.21802 19.6459C6.86279 19.269 6.64307 18.7452 6.64307 18.1988V16.0092C6.64307 15.7115 6.87744 15.4627 7.17407 15.4627C7.47437 15.4627 7.70508 15.7039 7.70508 16.0092V18.1988C7.70508 18.4626 7.81494 18.7113 7.9834 18.896C8.14819 19.0655 8.3606 19.1824 8.60596 19.1824L14.6887 19.1673ZM20.0977 15.5833C18.1018 15.5833 16.4941 17.2491 16.4941 19.2917C16.4941 21.3456 18.1128 23 20.0977 23C22.0935 23 23.7012 21.3343 23.7012 19.2917C23.7012 17.2378 22.0825 15.5833 20.0977 15.5833ZM20.0977 17.8671C19.3323 17.8671 18.7134 18.5078 18.7134 19.2917C18.7134 20.0793 19.3359 20.7162 20.0977 20.7162C20.863 20.7162 21.4819 20.0755 21.4819 19.2917C21.4856 18.504 20.863 17.8671 20.0977 17.8671ZM38.6169 15.5833C36.6211 15.5833 35.0134 17.2491 35.0134 19.2917C35.0134 21.3456 36.6321 23 38.6169 23C40.6128 23 42.2205 21.3343 42.2205 19.2917C42.2205 17.2378 40.6018 15.5833 38.6169 15.5833ZM38.6169 17.8671C37.8516 17.8671 37.2327 18.5078 37.2327 19.2917C37.2327 20.0793 37.8552 20.7162 38.6169 20.7162C39.3823 20.7162 40.0012 20.0755 40.0012 19.2917C40.0012 18.504 39.3823 17.8671 38.6169 17.8671ZM34.9255 7.36015L32.2412 7.32623V10.8838H36.7419L34.9255 7.36015Z" fill="white"/>
</svg>
