<svg width="11" height="10" viewBox="0 0 11 10" fill="none" xmlns="http://www.w3.org/2000/svg">
<g clip-path="url(#clip0_59_31542)">
<path d="M9.30798 4.11288H8.99519V4.09676H5.50035V5.65003H7.69492C7.37475 6.55422 6.51443 7.20329 5.50035 7.20329C4.21366 7.20329 3.17045 6.16008 3.17045 4.87339C3.17045 3.58671 4.21366 2.5435 5.50035 2.5435C6.09428 2.5435 6.63462 2.76756 7.04604 3.13354L8.14439 2.03519C7.45086 1.38884 6.52317 0.990234 5.50035 0.990234C3.35587 0.990234 1.61719 2.72892 1.61719 4.87339C1.61719 7.01787 3.35587 8.75655 5.50035 8.75655C7.64482 8.75655 9.38351 7.01787 9.38351 4.87339C9.38351 4.61303 9.35671 4.35888 9.30798 4.11288Z" fill="#FFC107"/>
<path d="M2.06445 3.06598L3.34027 4.00163C3.68548 3.14694 4.52152 2.5435 5.49988 2.5435C6.09381 2.5435 6.63416 2.76756 7.04558 3.13354L8.14393 2.03519C7.4504 1.38884 6.52271 0.990234 5.49988 0.990234C4.00836 0.990234 2.71488 1.8323 2.06445 3.06598Z" fill="#FF3D00"/>
<path d="M5.49995 8.7562C6.50297 8.7562 7.41435 8.37235 8.10342 7.74813L6.90158 6.73113C6.49861 7.03759 6.00621 7.20334 5.49995 7.20294C4.48994 7.20294 3.63235 6.55891 3.30927 5.66016L2.04297 6.6358C2.68563 7.89336 3.99076 8.7562 5.49995 8.7562Z" fill="#4CAF50"/>
<path d="M9.30763 4.11279H8.99484V4.09668H5.5V5.64994H7.69457C7.54142 6.08028 7.26555 6.45632 6.90104 6.7316L6.90163 6.73121L8.10346 7.74821C8.01842 7.82548 9.38316 6.81489 9.38316 4.87331C9.38316 4.61295 9.35637 4.35879 9.30763 4.11279Z" fill="#1976D2"/>
</g>
<defs>
<clipPath id="clip0_59_31542">
<rect width="9.31958" height="9.31958" fill="white" transform="translate(0.839844 0.212891)"/>
</clipPath>
</defs>
</svg>
