<svg width="25" height="24" viewBox="0 0 25 24" fill="none" xmlns="http://www.w3.org/2000/svg">
<path d="M21.6406 12.7503H18.6406C18.2428 12.7503 17.8613 12.9083 17.58 13.1897C17.2987 13.471 17.1406 13.8525 17.1406 14.2503V18.0003C17.1406 18.3981 17.2987 18.7797 17.58 19.061C17.8613 19.3423 18.2428 19.5003 18.6406 19.5003H20.1406C20.5384 19.5003 20.92 19.3423 21.2013 19.061C21.4826 18.7797 21.6406 18.3981 21.6406 18.0003V12.7503ZM21.6406 12.7503C21.6407 11.5621 21.4054 10.3856 20.9484 9.28875C20.4915 8.1919 19.8218 7.1964 18.9781 6.35969C18.1344 5.52297 17.1334 4.86161 16.0328 4.41375C14.9322 3.96589 13.7538 3.74041 12.5656 3.75031C11.3782 3.74165 10.2008 3.96805 9.10132 4.41647C8.0018 4.86488 7.00189 5.52645 6.1592 6.36304C5.31651 7.19963 4.6477 8.19471 4.19131 9.29094C3.73492 10.3872 3.49997 11.5629 3.5 12.7503V18.0003C3.5 18.3981 3.65804 18.7797 3.93934 19.061C4.22064 19.3423 4.60218 19.5003 5 19.5003H6.5C6.89782 19.5003 7.27936 19.3423 7.56066 19.061C7.84196 18.7797 8 18.3981 8 18.0003V14.2503C8 13.8525 7.84196 13.471 7.56066 13.1897C7.27936 12.9083 6.89782 12.7503 6.5 12.7503H3.5" stroke="#EB4227" stroke-width="1.5" stroke-linecap="round" stroke-linejoin="round"/>
</svg>
