<svg width="36" height="36" viewBox="0 0 36 36" fill="none" xmlns="http://www.w3.org/2000/svg">
<rect x="0.779297" y="0.980469" width="35" height="35" rx="17.5" fill="#E1E3EB"/>
<path d="M18.4555 14.5859C20.1781 14.5859 21.6 16.0078 21.6 17.7305C21.6 19.4805 20.1781 20.875 18.4555 20.875C16.7055 20.875 15.3109 19.4805 15.3109 17.7305C15.3109 16.0078 16.7055 14.5859 18.4555 14.5859ZM18.4555 19.7812C19.5766 19.7812 20.4789 18.8789 20.4789 17.7305C20.4789 16.6094 19.5766 15.707 18.4555 15.707C17.307 15.707 16.4047 16.6094 16.4047 17.7305C16.4047 18.8789 17.3344 19.7812 18.4555 19.7812ZM22.4477 14.4766C22.4477 14.8867 22.1195 15.2148 21.7094 15.2148C21.2992 15.2148 20.9711 14.8867 20.9711 14.4766C20.9711 14.0664 21.2992 13.7383 21.7094 13.7383C22.1195 13.7383 22.4477 14.0664 22.4477 14.4766ZM24.5258 15.2148C24.5805 16.2266 24.5805 19.2617 24.5258 20.2734C24.4711 21.2578 24.2523 22.1055 23.5414 22.8438C22.8305 23.5547 21.9555 23.7734 20.9711 23.8281C19.9594 23.8828 16.9242 23.8828 15.9125 23.8281C14.9281 23.7734 14.0805 23.5547 13.3422 22.8438C12.6312 22.1055 12.4125 21.2578 12.3578 20.2734C12.3031 19.2617 12.3031 16.2266 12.3578 15.2148C12.4125 14.2305 12.6312 13.3555 13.3422 12.6445C14.0805 11.9336 14.9281 11.7148 15.9125 11.6602C16.9242 11.6055 19.9594 11.6055 20.9711 11.6602C21.9555 11.7148 22.8305 11.9336 23.5414 12.6445C24.2523 13.3555 24.4711 14.2305 24.5258 15.2148ZM23.2133 21.3398C23.5414 20.5469 23.4594 18.6328 23.4594 17.7305C23.4594 16.8555 23.5414 14.9414 23.2133 14.1211C22.9945 13.6016 22.5844 13.1641 22.0648 12.9727C21.2445 12.6445 19.3305 12.7266 18.4555 12.7266C17.5531 12.7266 15.6391 12.6445 14.8461 12.9727C14.2992 13.1914 13.8891 13.6016 13.6703 14.1211C13.3422 14.9414 13.4242 16.8555 13.4242 17.7305C13.4242 18.6328 13.3422 20.5469 13.6703 21.3398C13.8891 21.8867 14.2992 22.2969 14.8461 22.5156C15.6391 22.8438 17.5531 22.7617 18.4555 22.7617C19.3305 22.7617 21.2445 22.8438 22.0648 22.5156C22.5844 22.2969 23.0219 21.8867 23.2133 21.3398Z" fill="black"/>
</svg>
