<svg width="31" height="31" viewBox="0 0 31 31" fill="none" xmlns="http://www.w3.org/2000/svg">
<mask id="mask0_92_1945" style="mask-type:alpha" maskUnits="userSpaceOnUse" x="0" y="0" width="31" height="31">
<path fill-rule="evenodd" clip-rule="evenodd" d="M0 0.480469H30.0024V30.4803H0V0.480469Z" fill="white"/>
</mask>
<g mask="url(#mask0_92_1945)">
<path fill-rule="evenodd" clip-rule="evenodd" d="M13.4168 27.5922C14.3017 28.4562 15.7266 28.4457 16.6056 27.5622L17.6885 26.4823C18.5285 25.6438 19.6894 25.1654 20.8728 25.1654H22.4178C23.6687 25.1654 24.6856 24.1484 24.6856 22.899V21.3556C24.6856 20.1542 25.1506 19.0247 25.9995 18.1743L27.0795 17.0928C27.519 16.6519 27.7544 16.0804 27.7529 15.4744C27.7514 14.87 27.513 14.3015 27.0825 13.8725L26.001 12.7896C25.1506 11.9331 24.6856 10.8052 24.6856 9.60377V8.06336C24.6856 6.81243 23.6687 5.79549 22.4178 5.79549H20.8758C19.6744 5.79549 18.545 5.32901 17.6945 4.48456L16.6116 3.40013C15.7101 2.50768 14.2717 2.51218 13.3913 3.39863L12.3128 4.48006C11.4519 5.33051 10.3225 5.79549 9.12553 5.79549H7.58212C6.33269 5.79699 5.31575 6.81393 5.31575 8.06336V9.60077C5.31575 10.8022 4.84927 11.9316 4.00332 12.7836L2.93839 13.85C2.92789 13.862 2.91739 13.871 2.90689 13.8815C2.02644 14.768 2.03094 16.2064 2.91739 17.0868L4.00032 18.1698C4.84927 19.0217 5.31575 20.1512 5.31575 21.3526V22.899C5.31575 24.1484 6.33119 25.1654 7.58212 25.1654H9.12253C10.3255 25.1669 11.4549 25.6333 12.3053 26.4808L13.3868 27.5592C13.3958 27.5697 13.4063 27.5802 13.4168 27.5922ZM14.9972 30.4808C13.8468 30.4808 12.6963 30.0458 11.8159 29.1729C11.8039 29.1609 11.7919 29.1489 11.7799 29.1354L10.715 28.072C10.2905 27.6505 9.72352 27.4165 9.12055 27.415H7.58164C5.09029 27.415 3.06541 25.3886 3.06541 22.8988V21.3523C3.06541 20.7494 2.82992 20.1839 2.40694 19.7579L1.32851 18.681C-0.423393 16.9381 -0.444392 14.1003 1.27601 12.3304C1.28951 12.3169 1.30301 12.3034 1.31651 12.2899L2.40844 11.1949C2.82992 10.7705 3.06541 10.202 3.06541 9.60052V8.06311C3.06541 5.57325 5.09029 3.54687 7.58014 3.54537H9.12505C9.72652 3.54537 10.2935 3.30988 10.724 2.88541L11.7964 1.80997C13.5498 0.0445739 16.4161 0.0355749 18.1845 1.79347L19.281 2.88991C19.7054 3.31138 20.2724 3.54537 20.8754 3.54537H22.4173C24.9086 3.54537 26.935 5.57175 26.935 8.06311V9.60352C26.935 10.205 27.169 10.7735 27.5935 11.2009L28.6704 12.2794C29.5239 13.1268 29.9978 14.2593 30.0023 15.4667C30.0068 16.6741 29.5404 17.8096 28.6899 18.666L27.5905 19.7624C27.169 20.1869 26.935 20.7524 26.935 21.3553V22.8988C26.935 25.3886 24.9086 27.415 22.4188 27.415H20.8724C20.2784 27.415 19.6979 27.655 19.2765 28.0735L18.1995 29.1504C17.3191 30.0368 16.1581 30.4808 14.9972 30.4808Z" fill="#FD4B6B"/>
</g>
<path fill-rule="evenodd" clip-rule="evenodd" d="M11.1441 20.4616C10.8561 20.4616 10.5681 20.3521 10.3492 20.1316C9.90965 19.6921 9.90965 18.9811 10.3492 18.5417L18.0587 10.8306C18.4982 10.3911 19.2106 10.3911 19.6501 10.8306C20.0896 11.2701 20.0896 11.9825 19.6501 12.422L11.9391 20.1316C11.7201 20.3521 11.4321 20.4616 11.1441 20.4616Z" fill="#FD4B6B"/>
<path fill-rule="evenodd" clip-rule="evenodd" d="M18.7535 20.7283C17.9241 20.7283 17.2461 20.0579 17.2461 19.2284C17.2461 18.399 17.9106 17.7285 18.74 17.7285H18.7535C19.583 17.7285 20.2534 18.399 20.2534 19.2284C20.2534 20.0579 19.583 20.7283 18.7535 20.7283Z" fill="#FD4B6B"/>
<path fill-rule="evenodd" clip-rule="evenodd" d="M11.2554 13.2283C10.426 13.2283 9.74805 12.5578 9.74805 11.7284C9.74805 10.8989 10.4125 10.2285 11.2419 10.2285H11.2554C12.0849 10.2285 12.7554 10.8989 12.7554 11.7284C12.7554 12.5578 12.0849 13.2283 11.2554 13.2283Z" fill="#FD4B6B"/>
</svg>
