<svg width="25" height="24" viewBox="0 0 25 24" fill="none" xmlns="http://www.w3.org/2000/svg">
<path d="M23.0656 11.4191L20.75 12.5722L17.75 6.83469L20.0938 5.66281C20.2679 5.57403 20.4701 5.55771 20.6563 5.61742C20.8425 5.67713 20.9975 5.80803 21.0875 5.98156L23.3937 10.3972C23.4405 10.4856 23.4691 10.5824 23.4779 10.682C23.4867 10.7817 23.4755 10.882 23.4449 10.9772C23.4143 11.0724 23.365 11.1606 23.2999 11.2365C23.2348 11.3123 23.1551 11.3744 23.0656 11.4191V11.4191Z" stroke="#EB4227" stroke-width="1.5" stroke-linecap="round" stroke-linejoin="round"/>
<path d="M4.24984 12.4779L1.93422 11.3154C1.84506 11.2717 1.76559 11.2105 1.70055 11.1355C1.63551 11.0604 1.58622 10.9731 1.55561 10.8787C1.52499 10.7842 1.51369 10.6845 1.52236 10.5856C1.53103 10.4867 1.55951 10.3906 1.60609 10.3029L3.91234 5.88725C4.00256 5.71384 4.15691 5.58251 4.34253 5.52122C4.52814 5.45993 4.73035 5.47353 4.90609 5.55912L7.24984 6.731L4.24984 12.4779Z" stroke="#EB4227" stroke-width="1.5" stroke-linecap="round" stroke-linejoin="round"/>
<path d="M20.75 12.5723L19.25 14.3348L15.8 17.7848C15.706 17.8727 15.592 17.9365 15.468 17.9708C15.3439 18.0051 15.2133 18.0088 15.0875 17.9816L9.65 16.6223C9.55067 16.5946 9.45812 16.5467 9.37812 16.4816L4.25 12.4785" stroke="#EB4227" stroke-width="1.5" stroke-linecap="round" stroke-linejoin="round"/>
<path d="M19.2496 14.334L15.1246 11.334L13.9246 12.234C13.4047 12.622 12.7733 12.8317 12.1246 12.8317C11.4759 12.8317 10.8445 12.622 10.3246 12.234L9.81834 11.8496C9.73274 11.7845 9.66193 11.702 9.61061 11.6075C9.55929 11.513 9.52862 11.4087 9.52065 11.3014C9.51267 11.1942 9.52756 11.0865 9.56434 10.9854C9.60111 10.8844 9.65893 10.7923 9.73397 10.7152L13.409 7.04961C13.478 6.98092 13.5599 6.92652 13.65 6.88952C13.7401 6.85252 13.8366 6.83365 13.934 6.83399H17.7496" stroke="#EB4227" stroke-width="1.5" stroke-linecap="round" stroke-linejoin="round"/>
<path d="M7.30664 6.73121L12.116 5.32496C12.2869 5.27595 12.4696 5.28924 12.6316 5.36246L15.8754 6.83433" stroke="#EB4227" stroke-width="1.5" stroke-linecap="round" stroke-linejoin="round"/>
<path d="M11 19.9594L8.17813 19.2469C8.06313 19.2209 7.95666 19.166 7.86875 19.0875L5.75 17.25" stroke="#EB4227" stroke-width="1.5" stroke-linecap="round" stroke-linejoin="round"/>
</svg>
