<svg width="50" height="100" viewBox="15 15 50 100" fill="none" xmlns="http://www.w3.org/2000/svg">
<g filter="url(#filter0_d_92_1295)">
  <path d="M15 23.1426C15 18.7243 18.5817 15.1426 23 15.1426H65V108.614H23C18.5817 108.614 15 105.032 15 100.614V23.1426Z" fill="white" shape-rendering="crispEdges"/>
  <path d="M37.1747 39.5176V42.1426H36.5043V37.7789H37.152V38.4608H37.2088C37.3111 38.2392 37.4664 38.0611 37.6747 37.9267C37.883 37.7903 38.152 37.7221 38.4815 37.7221C38.777 37.7221 39.0355 37.7827 39.2571 37.9039C39.4787 38.0233 39.651 38.2051 39.7741 38.4494C39.8973 38.6918 39.9588 38.9986 39.9588 39.3699V42.1426H39.2884V39.4153C39.2884 39.0725 39.1993 38.8055 39.0213 38.6142C38.8433 38.421 38.599 38.3244 38.2884 38.3244C38.0743 38.3244 37.883 38.3708 37.7145 38.4636C37.5478 38.5564 37.4162 38.6918 37.3196 38.8699C37.223 39.0479 37.1747 39.2638 37.1747 39.5176ZM38.3338 58.2335C37.9134 58.2335 37.5507 58.1407 37.2457 57.9551C36.9427 57.7676 36.7088 57.5062 36.544 57.171C36.3812 56.8339 36.2997 56.4418 36.2997 55.9949C36.2997 55.5479 36.3812 55.1539 36.544 54.813C36.7088 54.4702 36.938 54.2032 37.2315 54.0119C37.527 53.8187 37.8717 53.7221 38.2656 53.7221C38.4929 53.7221 38.7173 53.76 38.9389 53.8358C39.1605 53.9115 39.3622 54.0346 39.544 54.2051C39.7259 54.3736 39.8707 54.5971 39.9787 54.8755C40.0866 55.1539 40.1406 55.4967 40.1406 55.9039V56.188H36.777V55.6085H39.4588C39.4588 55.3623 39.4096 55.1426 39.3111 54.9494C39.2145 54.7562 39.0762 54.6038 38.8963 54.492C38.7183 54.3803 38.508 54.3244 38.2656 54.3244C37.9986 54.3244 37.7675 54.3907 37.5724 54.5233C37.3793 54.6539 37.2306 54.8244 37.1264 55.0346C37.0223 55.2449 36.9702 55.4702 36.9702 55.7108V56.0971C36.9702 56.4267 37.027 56.706 37.1406 56.9352C37.2562 57.1625 37.4162 57.3358 37.6207 57.4551C37.8253 57.5725 38.063 57.6312 38.3338 57.6312C38.5099 57.6312 38.669 57.6066 38.8111 57.5574C38.955 57.5062 39.0791 57.4305 39.1832 57.3301C39.2874 57.2278 39.3679 57.1009 39.4247 56.9494L40.0724 57.1312C40.0043 57.3509 39.8897 57.5441 39.7287 57.7108C39.5677 57.8755 39.3688 58.0043 39.1321 58.0971C38.8954 58.188 38.6293 58.2335 38.3338 58.2335ZM37.0043 69.7789L38.0497 71.563L39.0952 69.7789H39.8679L38.4588 71.9608L39.8679 74.1426H39.0952L38.0497 72.4494L37.0043 74.1426H36.2315L37.6179 71.9608L36.2315 69.7789H37.0043ZM42.7223 69.7789V70.3471H40.4609V69.7789H42.7223ZM41.12 68.7335H41.7905V72.8926C41.7905 73.082 41.8179 73.224 41.8729 73.3187C41.9297 73.4115 42.0017 73.474 42.0888 73.5062C42.1778 73.5365 42.2715 73.5517 42.37 73.5517C42.4439 73.5517 42.5045 73.5479 42.5518 73.5403C42.5992 73.5308 42.6371 73.5233 42.6655 73.5176L42.8018 74.1199C42.7564 74.1369 42.6929 74.1539 42.6115 74.171C42.5301 74.1899 42.4268 74.1994 42.3018 74.1994C42.1125 74.1994 41.9268 74.1587 41.745 74.0772C41.5651 73.9958 41.4155 73.8717 41.2962 73.7051C41.1787 73.5384 41.12 73.3282 41.12 73.0744V68.7335Z" fill="#4B3EC4"/>
</g>
<defs>
  <filter id="filter0_d_92_1295" x="0" y="0" width="80" height="124" filterUnits="userSpaceOnUse" color-interpolation-filters="sRGB">
    <feFlood flood-opacity="0" result="BackgroundImageFix"/>
    <feColorMatrix in="SourceAlpha" type="matrix" values="0 0 0 0 0 0 0 0 0 0 0 0 0 0 0 0 0 0 127 0" result="hardAlpha"/>
    <feOffset/>
    <feGaussianBlur stdDeviation="7.5"/>
    <feComposite in2="hardAlpha" operator="out"/>
    <feColorMatrix type="matrix" values="0 0 0 0 0 0 0 0 0 0 0 0 0 0 0 0 0 0 0.133 0"/>
    <feBlend mode="normal" in2="BackgroundImageFix" result="effect1_dropShadow_92_1295"/>
    <feBlend mode="normal" in="SourceGraphic" in2="effect1_dropShadow_92_1295" result="shape"/>
  </filter>
</defs>
</svg>
