<svg width="44" height="44" viewBox="0 0 44 44" fill="none" xmlns="http://www.w3.org/2000/svg">
<path d="M11.9324 18.4501L17.2038 18.3797L17.5966 18.4819C19.4459 19.5485 21.1011 20.8797 22.5345 22.4619C24.426 19.4187 26.4404 16.6247 28.5691 14.055C30.9005 11.2387 33.3747 8.68449 35.9734 6.35287L36.4882 6.1552H42.24L41.0807 7.44348C37.516 11.4046 34.2822 15.498 31.3603 19.7195C28.4367 23.9453 25.8234 28.3069 23.4996 32.7965L22.7769 34.1922L22.1117 32.7707C19.6857 27.5635 16.2654 23.1289 11.5027 19.8587L11.9324 18.4501ZM21.9983 0C25.3026 0 28.545 0.735668 31.5236 2.16575C31.7152 2.25771 31.7977 2.49061 31.7058 2.68313C31.6791 2.73813 31.6413 2.78454 31.5958 2.82063L28.3697 5.46079C28.3148 5.50674 28.2484 5.53679 28.1777 5.5477C28.1069 5.5586 28.0345 5.54995 27.9684 5.52267C26.0554 4.82997 24.0367 4.4819 22.0026 4.4819C17.3387 4.4819 12.9121 6.31162 9.61555 9.61181C6.31641 12.9129 4.48508 17.332 4.48508 21.9996C4.48508 26.6645 6.31469 31.088 9.61469 34.3865C12.9164 37.6867 17.3345 39.5181 22.0026 39.5181C26.6621 39.5181 31.0939 37.6867 34.3879 34.3873C37.6888 31.088 39.5184 26.6663 39.5184 21.9996C39.5184 20.8651 39.4144 19.7487 39.1961 18.6341C39.1729 18.5129 39.209 18.3917 39.2846 18.3049L42.13 14.6988C42.2641 14.532 42.5098 14.5071 42.6766 14.6412C42.7393 14.6919 42.7814 14.7581 42.8037 14.8302C43.5987 17.1361 44 19.5614 44 21.9996C44 27.8462 41.6909 33.4205 37.5564 37.5552C33.4228 41.6881 27.8472 44 22.0026 44C16.1562 44 10.5823 41.689 6.44789 37.5552L6.43242 37.538C2.30398 33.4033 0 27.8428 0 21.9996C0 16.1538 2.30914 10.5795 6.44359 6.44483L6.46078 6.42936C10.5952 2.30412 16.158 0 21.9983 0Z" fill="white"/>
</svg>
