<svg width="14" height="16" viewBox="0 0 14 16" fill="none" xmlns="http://www.w3.org/2000/svg">
<g clip-path="url(#clip0_990_1533)">
<path d="M7.0072 8.50263C6.31456 8.50263 5.6752 8.32947 5.08912 7.98315C4.50304 7.63683 4.03684 7.17063 3.69052 6.58455C3.3442 5.99847 3.17104 5.35911 3.17104 4.66647C3.17104 3.97383 3.3442 3.33447 3.69052 2.74839C4.03684 2.16231 4.50304 1.69611 5.08912 1.34979C5.6752 1.00347 6.31456 0.830307 7.0072 0.830307C7.69984 0.830307 8.3392 1.00347 8.92529 1.34979C9.51137 1.69611 9.97757 2.16231 10.3239 2.74839C10.6702 3.33447 10.8434 3.97383 10.8434 4.66647C10.8434 5.35911 10.6702 5.99847 10.3239 6.58455C9.97757 7.17063 9.51137 7.63683 8.92529 7.98315C8.3392 8.32947 7.69984 8.50263 7.0072 8.50263ZM7.0072 1.8373C6.49572 1.8373 6.02152 1.96251 5.58463 2.21292C5.14773 2.46334 4.80407 2.807 4.55366 3.24389C4.30324 3.68079 4.17803 4.15498 4.17803 4.66647C4.17803 5.17796 4.30324 5.64949 4.55366 6.08106C4.80407 6.51262 5.14773 6.85628 5.58463 7.11203C6.02152 7.36777 6.49572 7.49564 7.0072 7.49564C7.51869 7.49564 7.99022 7.36777 8.42179 7.11203C8.85336 6.85628 9.19701 6.51262 9.45276 6.08106C9.7085 5.64949 9.83637 5.17796 9.83637 4.66647C9.83637 4.15498 9.7085 3.68079 9.45276 3.24389C9.19701 2.807 8.85336 2.46334 8.42179 2.21292C7.99022 1.96251 7.51869 1.8373 7.0072 1.8373ZM12.7295 15.168C12.591 15.168 12.4737 15.1174 12.3778 15.0161C12.2819 14.9149 12.234 14.8003 12.234 14.6725C12.234 13.9159 11.9942 13.2126 11.5147 12.5626C11.0565 11.9339 10.4331 11.4384 9.64457 11.0761C8.83471 10.6924 7.95559 10.5006 7.0072 10.5006C6.05882 10.5006 5.1797 10.6924 4.36984 11.0761C3.5813 11.4384 2.95792 11.9339 2.49971 12.5626C2.02019 13.2126 1.78043 13.9159 1.78043 14.6725C1.78043 14.8003 1.72981 14.9149 1.62858 15.0161C1.52735 15.1174 1.41013 15.168 1.27693 15.168C1.14373 15.168 1.02652 15.1174 0.925286 15.0161C0.824054 14.9149 0.773438 14.8003 0.773438 14.6725C0.773438 13.7347 1.06115 12.8663 1.63657 12.0671C2.18003 11.2785 2.92062 10.6605 3.85835 10.2129C4.82805 9.7334 5.87767 9.49364 7.0072 9.49364C8.13674 9.49364 9.18103 9.7334 10.1401 10.2129C11.0885 10.6605 11.8344 11.2785 12.3778 12.0671C12.9426 12.8663 13.225 13.7347 13.225 14.6725C13.225 14.8003 13.177 14.9149 13.0811 15.0161C12.9852 15.1174 12.868 15.168 12.7295 15.168Z" fill="#FF2220"/>
</g>
<defs>
<clipPath id="clip0_990_1533">
<rect width="14" height="16" fill="white" transform="matrix(1 0 0 -1 0 16)"/>
</clipPath>
</defs>
</svg>
