<svg width="36" height="36" viewBox="0 0 36 36" fill="none" xmlns="http://www.w3.org/2000/svg">
<rect x="0.560547" y="0.980469" width="35" height="35" rx="17.5" fill="#E1E3EB"/>
<path d="M25.021 17.7305C25.021 21.4766 21.9858 24.5117 18.2397 24.5117C17.5288 24.5117 16.8452 24.4297 16.2163 24.2109C16.4897 23.7734 16.8999 23.0352 17.064 22.4336C17.146 22.1328 17.4741 20.8203 17.4741 20.8203C17.6929 21.2578 18.3491 21.6133 19.0327 21.6133C21.0835 21.6133 22.5601 19.7266 22.5601 17.4023C22.5601 15.1602 20.728 13.4648 18.3765 13.4648C15.4507 13.4648 13.8921 15.4336 13.8921 17.5664C13.8921 18.5781 14.4116 19.8086 15.2593 20.2188C15.396 20.2734 15.478 20.2461 15.5054 20.1094C15.5054 20.0273 15.6421 19.5625 15.6968 19.3438C15.6968 19.2891 15.6968 19.207 15.6421 19.1523C15.3687 18.8242 15.1499 18.1953 15.1499 17.5938C15.1499 16.1172 16.271 14.668 18.2124 14.668C19.853 14.668 21.0288 15.7891 21.0288 17.4297C21.0288 19.2617 20.0991 20.5195 18.896 20.5195C18.2397 20.5195 17.7476 19.9727 17.8843 19.3164C18.0757 18.4961 18.4585 17.6211 18.4585 17.0469C18.4585 16.5273 18.1851 16.0898 17.6108 16.0898C16.9272 16.0898 16.3804 16.8008 16.3804 17.7305C16.3804 18.332 16.5718 18.7422 16.5718 18.7422C16.5718 18.7422 15.9155 21.5859 15.7788 22.1055C15.6421 22.707 15.6968 23.5273 15.7515 24.0469C13.2358 23.0625 11.4585 20.6289 11.4585 17.7305C11.4585 13.9844 14.4937 10.9492 18.2397 10.9492C21.9858 10.9492 25.021 13.9844 25.021 17.7305Z" fill="black"/>
</svg>
