<svg width="50" height="100" viewBox="15 15 50 100" fill="none" xmlns="http://www.w3.org/2000/svg">
  <g filter="url(#filter0_d_92_1297)">
    <path d="M15 15.1631H57C61.4183 15.1631 65 18.7448 65 23.1631V100.635C65 105.053 61.4183 108.635 57 108.635H15V15.1631Z" fill="white" shape-rendering="crispEdges"/>
    <path d="M36.5043 43.7994V37.7994H37.152V38.4926H37.2315C37.2808 38.4169 37.349 38.3203 37.4361 38.2029C37.5251 38.0835 37.652 37.9775 37.8168 37.8847C37.9834 37.79 38.2088 37.7426 38.4929 37.7426C38.8603 37.7426 39.1842 37.8345 39.4645 38.0182C39.7448 38.2019 39.9635 38.4623 40.1207 38.7994C40.2779 39.1366 40.3565 39.5343 40.3565 39.9926C40.3565 40.4548 40.2779 40.8553 40.1207 41.1943C39.9635 41.5315 39.7457 41.7928 39.4673 41.9784C39.1889 42.1621 38.8679 42.254 38.5043 42.254C38.224 42.254 37.9995 42.2076 37.831 42.1148C37.6624 42.0201 37.5327 41.9131 37.4418 41.7938C37.3509 41.6726 37.2808 41.5722 37.2315 41.4926H37.1747V43.7994H36.5043ZM37.1634 39.9813C37.1634 40.3108 37.2116 40.6015 37.3082 40.8534C37.4048 41.1034 37.5459 41.2994 37.7315 41.4415C37.9171 41.5816 38.1444 41.6517 38.4134 41.6517C38.6937 41.6517 38.9276 41.5779 39.1151 41.4301C39.3045 41.2805 39.4465 41.0798 39.5412 40.8279C39.6378 40.5741 39.6861 40.2919 39.6861 39.9813C39.6861 39.6744 39.6387 39.3979 39.544 39.1517C39.4512 38.9036 39.3101 38.7076 39.1207 38.5637C38.9332 38.4178 38.6974 38.3449 38.4134 38.3449C38.1406 38.3449 37.9115 38.414 37.7259 38.5523C37.5402 38.6887 37.4001 38.8799 37.3054 39.1262C37.2107 39.3705 37.1634 39.6555 37.1634 39.9813ZM41.3793 42.1631V37.7994H42.027V38.4585H42.0724C42.152 38.2426 42.2959 38.0674 42.5043 37.933C42.7126 37.7985 42.9474 37.7313 43.2088 37.7313C43.258 37.7313 43.3196 37.7322 43.3935 37.7341C43.4673 37.736 43.5232 37.7388 43.5611 37.7426V38.4244C43.5384 38.4188 43.4863 38.4102 43.4048 38.3989C43.3253 38.3856 43.241 38.379 43.152 38.379C42.9399 38.379 42.7505 38.4235 42.5838 38.5125C42.419 38.5996 42.2884 38.7209 42.1918 38.8762C42.0971 39.0296 42.0497 39.2048 42.0497 39.4017V42.1631H41.3793ZM38.3338 58.254C37.9134 58.254 37.5507 58.1612 37.2457 57.9756C36.9427 57.7881 36.7088 57.5267 36.544 57.1915C36.3812 56.8544 36.2997 56.4623 36.2997 56.0154C36.2997 55.5684 36.3812 55.1744 36.544 54.8335C36.7088 54.4907 36.938 54.2237 37.2315 54.0324C37.527 53.8392 37.8717 53.7426 38.2656 53.7426C38.4929 53.7426 38.7173 53.7805 38.9389 53.8563C39.1605 53.932 39.3622 54.0551 39.544 54.2256C39.7259 54.3941 39.8707 54.6176 39.9787 54.896C40.0866 55.1744 40.1406 55.5173 40.1406 55.9244V56.2085H36.777V55.629H39.4588C39.4588 55.3828 39.4096 55.1631 39.3111 54.9699C39.2145 54.7767 39.0762 54.6243 38.8963 54.5125C38.7183 54.4008 38.508 54.3449 38.2656 54.3449C37.9986 54.3449 37.7675 54.4112 37.5724 54.5438C37.3793 54.6744 37.2306 54.8449 37.1264 55.0551C37.0223 55.2654 36.9702 55.4907 36.9702 55.7313V56.1176C36.9702 56.4472 37.027 56.7265 37.1406 56.9557C37.2562 57.183 37.4162 57.3563 37.6207 57.4756C37.8253 57.593 38.063 57.6517 38.3338 57.6517C38.5099 57.6517 38.669 57.6271 38.8111 57.5779C38.955 57.5267 39.0791 57.451 39.1832 57.3506C39.2874 57.2483 39.3679 57.1214 39.4247 56.9699L40.0724 57.1517C40.0043 57.3714 39.8897 57.5646 39.7287 57.7313C39.5677 57.896 39.3688 58.0248 39.1321 58.1176C38.8954 58.2085 38.6293 58.254 38.3338 58.254ZM40.0724 69.7994L38.4588 74.1631H37.777L36.1634 69.7994H36.8906L38.0952 73.2767H38.1406L39.3452 69.7994H40.0724Z" fill="#4B3EC4"/>
  </g>
  <defs>
    <filter id="filter0_d_92_1297" x="0" y="0.163086" width="80" height="123.472" filterUnits="userSpaceOnUse" color-interpolation-filters="sRGB">
      <feFlood flood-opacity="0" result="BackgroundImageFix"/>
      <feColorMatrix in="SourceAlpha" type="matrix" values="0 0 0 0 0 0 0 0 0 0 0 0 0 0 0 0 0 0 127 0" result="hardAlpha"/>
      <feOffset/>
      <feGaussianBlur stdDeviation="7.5"/>
      <feComposite in2="hardAlpha" operator="out"/>
      <feColorMatrix type="matrix" values="0 0 0 0 0 0 0 0 0 0 0 0 0 0 0 0 0 0 0.133 0"/>
      <feBlend mode="normal" in2="BackgroundImageFix" result="effect1_dropShadow_92_1297"/>
      <feBlend mode="normal" in="SourceGraphic" in2="effect1_dropShadow_92_1297" result="shape"/>
    </filter>
  </defs>
</svg>
