<svg width="17" height="17" viewBox="0 0 17 17" fill="none" xmlns="http://www.w3.org/2000/svg">
<path d="M5.80259 2.4712C5.70675 2.51383 5.62155 2.57776 5.54701 2.66301C5.47246 2.74826 5.42454 2.83351 5.40324 2.91875C5.36064 3.07859 5.36064 3.24376 5.40324 3.41426C5.42454 3.48885 5.4698 3.56877 5.53902 3.65402C5.60824 3.73927 5.68545 3.80853 5.77064 3.86181L5.91441 3.94173L11.6491 3.95772L4.31701 11.3104C3.81649 11.8112 3.46772 12.1682 3.27071 12.3813C3.07369 12.5944 2.94856 12.7436 2.89532 12.8288C2.86337 12.8928 2.85272 12.962 2.86337 13.0366V13.1006C2.85272 13.335 2.92993 13.5241 3.09499 13.668C3.26006 13.8119 3.44908 13.8785 3.66207 13.8678L3.70999 13.8838C3.78454 13.8838 3.85376 13.8678 3.91765 13.8358C4.00285 13.7719 4.15993 13.636 4.38889 13.4282C4.61785 13.2205 4.98792 12.8555 5.49908 12.3333L12.7513 5.09258L12.7673 7.93774C12.7673 9.25908 12.7699 10.0663 12.7753 10.3593C12.7806 10.6524 12.7939 10.8255 12.8152 10.8788C12.9004 11.0599 13.0335 11.1958 13.2145 11.2864C13.3956 11.377 13.5819 11.3903 13.7736 11.3263C13.9227 11.2944 14.0479 11.2198 14.149 11.1026C14.2502 10.9854 14.3114 10.8522 14.3327 10.703C14.354 10.5858 14.3594 9.26974 14.3487 6.75492V2.98269L14.2848 2.85482C14.1996 2.67367 14.0665 2.53514 13.8855 2.43923L13.7577 2.3753H5.97831L5.80259 2.4712Z" fill="#FF2220"/>
</svg>
