<svg width="15" height="15" viewBox="0 0 15 15" fill="none" xmlns="http://www.w3.org/2000/svg">
<path d="M13.9086 12.8633C14.1547 13.1367 14.1547 13.5469 13.8812 13.793L13.1156 14.5586C12.8695 14.832 12.4594 14.832 12.1859 14.5586L9.47891 11.8516C9.34219 11.7148 9.2875 11.5508 9.2875 11.3867V10.9219C8.30312 11.6875 7.1 12.125 5.7875 12.125C2.64297 12.125 0.0999999 9.58203 0.0999999 6.4375C0.0999999 3.32031 2.64297 0.75 5.7875 0.75C8.90469 0.75 11.475 3.32031 11.475 6.4375C11.475 7.77734 11.0102 8.98047 10.2719 9.9375H10.7094C10.8734 9.9375 11.0375 10.0195 11.1742 10.1289L13.9086 12.8633ZM5.7875 9.9375C7.70156 9.9375 9.2875 8.37891 9.2875 6.4375C9.2875 4.52344 7.70156 2.9375 5.7875 2.9375C3.84609 2.9375 2.2875 4.52344 2.2875 6.4375C2.2875 8.37891 3.84609 9.9375 5.7875 9.9375Z" fill="black"/>
</svg>
