<svg width="39" height="45" viewBox="0 0 39 45" fill="none" xmlns="http://www.w3.org/2000/svg">
<g clip-path="url(#clip0_735_1567)">
<path fill-rule="evenodd" clip-rule="evenodd" d="M20.7151 0.893555C23.3958 2.64531 26.2864 4.05524 29.3193 5.09033C31.5696 5.87025 33.9547 6.19035 36.332 6.03149L38.7982 5.80811L38.9195 8.27637C39.3716 17.3547 37.9014 25.2429 34.8177 31.4648C31.609 37.9395 26.6766 42.616 20.3439 44.989H18.6973C12.5078 42.7368 7.61216 38.1885 4.36308 31.6333C1.33085 25.481 -0.22386 17.5342 0.0260697 8.05664L0.0922275 5.62134L2.52169 5.74585C5.16639 5.91682 7.82116 5.64574 10.3761 4.94385C13.1417 4.13893 15.7242 2.80693 17.9806 1.02173L19.3 0L20.7151 0.893555ZM19.4544 7.06787C24.4273 10.21 28.9186 11.6968 32.7742 11.3525C33.4468 24.9023 28.4188 35.2588 19.5059 38.6023C10.8943 35.4712 5.80385 25.4736 6.18242 11.1365C10.7069 11.3745 15.1505 10.4041 19.4544 7.06787ZM16.7272 22.5623C17.0703 22.8539 17.3944 23.167 17.6975 23.4998C18.6138 22.0278 19.6293 20.6195 20.7371 19.2847C23.7657 15.6409 22.8615 15.8789 27.0625 15.8789L26.4634 16.5234C24.8862 18.2862 23.4369 20.1586 22.1264 22.1265C20.6696 24.2255 19.3487 26.415 18.1717 28.6816L17.8041 29.3811L17.4697 28.6707C16.8756 27.3787 16.1238 26.1647 15.2313 25.0562C14.4261 24.0425 13.4647 23.1624 12.3829 22.4487C12.9305 20.658 15.5401 21.5771 16.7089 22.5623H16.7272ZM19.4397 2.89673C25.8276 6.92505 31.5943 8.83667 36.5488 8.38989C37.4126 25.8179 30.9511 38.4814 19.5059 42.7771C8.45383 38.7524 1.91524 26.532 2.4004 8.12256C8.21126 8.42285 13.9155 7.17407 19.4397 2.89673Z" fill="white"/>
</g>
<defs>
<clipPath id="clip0_735_1567">
<rect width="39" height="45" fill="white"/>
</clipPath>
</defs>
</svg>
