<svg width="35" height="36" viewBox="0 0 35 36" fill="none" xmlns="http://www.w3.org/2000/svg">
<rect y="0.980469" width="35" height="35" rx="17.5" fill="#E1E3EB"/>
<path d="M23.232 14.8867C23.232 15.0234 23.232 15.1328 23.232 15.2695C23.232 19.0703 20.3609 23.418 15.0836 23.418C13.443 23.418 11.9391 22.9531 10.6813 22.1328C10.9 22.1602 11.1188 22.1875 11.3648 22.1875C12.7047 22.1875 13.9352 21.7227 14.9195 20.957C13.6617 20.9297 12.5953 20.1094 12.2398 18.9609C12.4313 18.9883 12.5953 19.0156 12.7867 19.0156C13.0328 19.0156 13.3063 18.9609 13.525 18.9062C12.2125 18.6328 11.2281 17.4844 11.2281 16.0898V16.0625C11.6109 16.2812 12.0758 16.3906 12.5406 16.418C11.7477 15.8984 11.2555 15.0234 11.2555 14.0391C11.2555 13.4922 11.3922 13 11.6383 12.5898C13.0602 14.3125 15.193 15.4609 17.5719 15.5977C17.5172 15.3789 17.4898 15.1602 17.4898 14.9414C17.4898 13.3555 18.775 12.0703 20.3609 12.0703C21.1813 12.0703 21.9195 12.3984 22.4664 12.9727C23.0953 12.8359 23.7242 12.5898 24.2711 12.2617C24.0523 12.9453 23.6148 13.4922 23.0133 13.8477C23.5875 13.793 24.1617 13.6289 24.6539 13.4102C24.2711 13.9844 23.7789 14.4766 23.232 14.8867Z" fill="black"/>
</svg>
