<svg width="36" height="36" viewBox="0 0 36 36" fill="none" xmlns="http://www.w3.org/2000/svg">
<rect x="0.669922" y="0.980469" width="35" height="35" rx="17.5" fill="#E1E3EB"/>
<path d="M25.5047 14.1484C25.8328 15.2969 25.8328 17.7578 25.8328 17.7578C25.8328 17.7578 25.8328 20.1914 25.5047 21.3672C25.3406 22.0234 24.8211 22.5156 24.1922 22.6797C23.0164 22.9805 18.368 22.9805 18.368 22.9805C18.368 22.9805 13.6922 22.9805 12.5164 22.6797C11.8875 22.5156 11.368 22.0234 11.2039 21.3672C10.8758 20.1914 10.8758 17.7578 10.8758 17.7578C10.8758 17.7578 10.8758 15.2969 11.2039 14.1484C11.368 13.4922 11.8875 12.9727 12.5164 12.8086C13.6922 12.4805 18.368 12.4805 18.368 12.4805C18.368 12.4805 23.0164 12.4805 24.1922 12.8086C24.8211 12.9727 25.3406 13.4922 25.5047 14.1484ZM16.8367 19.9727L20.7195 17.7578L16.8367 15.543V19.9727Z" fill="black"/>
</svg>
